<?xml version="1.0" encoding="utf-8"?>
<!-- Svg Vector Icons : http://www.onlinewebfonts.com/icon -->
<!DOCTYPE svg PUBLIC "-//W3C//DTD SVG 1.1//EN" "http://www.w3.org/Graphics/SVG/1.1/DTD/svg11.dtd">
<svg version="1.1" xmlns="http://www.w3.org/2000/svg" xmlns:xlink="http://www.w3.org/1999/xlink" x="0px" y="0px" viewBox="0 0 256 256" enable-background="new 0 0 256 256" xml:space="preserve">
<metadata> Svg Vector Icons : http://www.onlinewebfonts.com/icon </metadata>
<g><g><path fill="#000000" d="M236.7,82.1c-5.9-14.1-14.4-26.7-25.3-37.5c-10.8-10.8-23.5-19.3-37.5-25.3c-14.6-6.2-30-9.3-45.9-9.3s-31.4,3.1-45.9,9.3C68,25.2,55.4,33.7,44.6,44.6C33.7,55.4,25.2,68,19.3,82.1c-6.2,14.6-9.3,30-9.3,45.9s3.1,31.4,9.3,45.9c5.9,14.1,14.4,26.7,25.3,37.5c10.8,10.8,23.5,19.3,37.5,25.3c14.6,6.2,30,9.3,45.9,9.3s31.4-3.1,45.9-9.3c14.1-5.9,26.7-14.4,37.5-25.3c10.8-10.8,19.3-23.5,25.3-37.5c6.2-14.6,9.3-30,9.3-45.9S242.9,96.6,236.7,82.1z M128,234.1c-58.5,0-106.1-47.6-106.1-106.1C21.9,69.5,69.5,21.9,128,21.9c58.5,0,106.1,47.6,106.1,106.1C234.1,186.5,186.5,234.1,128,234.1z"/><path fill="#000000" d="M128,31.4c-53.3,0-96.6,43.2-96.6,96.6c0,53.3,43.2,96.6,96.6,96.6c53.3,0,96.6-43.2,96.6-96.6C224.6,74.7,181.3,31.4,128,31.4z M158.1,94.9c-2,0-4,0-6,0c-1.8,0-3.5,0-5.3,0c-7.2,0.2-9.7,2.9-9.8,10.1c0,4.3,0,8.7,0,13.3c6.8,0,13.5,0,20.5,0c-0.9,7.1-1.8,13.8-2.7,20.7c-6,0-11.8,0-17.7,0c0,17.7,0,35.1,0,52.8c-7.2,0-14.2,0-21.5,0c0-17.4,0-34.9,0-52.7c-6.1,0-11.9,0-17.8,0c0-6.9,0-13.8,0-20.7c5.8,0,11.6,0,17.7,0c0-1,0-1.8,0-2.6c0.1-6-0.1-12.1,0.4-18.1c1.2-12,9.3-20.4,21.4-21.6c6.8-0.7,13.8-0.1,20.8-0.1C158.1,82.6,158.1,88.7,158.1,94.9z"/></g></g>
</svg>